<svg width="1000" height="1000" viewBox="0 0 1000 1000" fill="none" xmlns="http://www.w3.org/2000/svg">
<rect width="1000" height="1000" fill="#151321"/>
<path d="M717.6 309H625.6V229H897.6V309H805.6V789H717.6V309Z" fill="#FF2E00"/>
<path d="M106.8 229H239.6C284.933 229 318 239.667 338.8 261C359.6 281.8 370 314.067 370 357.8V380.2C370 409 365.2 432.467 355.6 450.6C346.533 468.733 332.4 481.8 313.2 489.8V491.4C356.933 506.333 378.8 545.267 378.8 608.2V656.2C378.8 699.4 367.333 732.467 344.4 755.4C322 777.8 288.933 789 245.2 789H106.8V229ZM229.2 457C246.8 457 259.867 452.467 268.4 443.4C277.467 434.333 282 419.133 282 397.8V366.6C282 346.333 278.267 331.667 270.8 322.6C263.867 313.533 252.667 309 237.2 309H194.8V457H229.2ZM245.2 709C260.667 709 272.133 705 279.6 697C287.067 688.467 290.8 674.067 290.8 653.8V605C290.8 579.4 286.267 561.8 277.2 552.2C268.667 542.067 254.267 537 234 537H194.8V709H245.2ZM430.238 229H518.238V709H663.038V789H430.238V229Z" fill="#0085FF"/>
</svg>
