<svg width="1500" height="500" viewBox="0 0 1500 500" fill="none" xmlns="http://www.w3.org/2000/svg">
<rect width="1500" height="500" fill="#151321"/>
<path d="M161.615 386H158.015L167.935 360.92H171.455L181.255 386H177.655L175.375 379.96H163.895L161.615 386ZM169.615 364.04C169.349 364.973 169.029 365.96 168.655 367C168.309 368.04 167.949 369.08 167.575 370.12L165.015 376.96H174.255L171.695 370.12C171.162 368.653 170.735 367.467 170.415 366.56C170.122 365.653 169.855 364.813 169.615 364.04ZM187.522 386H184.242V366.24H187.082L187.242 368.16H187.362C188.428 367.36 189.535 366.773 190.682 366.4C191.855 366.027 193.162 365.84 194.602 365.84C196.788 365.84 198.442 366.387 199.562 367.48C200.708 368.573 201.282 370.187 201.282 372.32V386H198.002V372.72C198.002 371.387 197.628 370.4 196.882 369.76C196.135 369.12 194.988 368.8 193.442 368.8C192.482 368.8 191.495 368.96 190.482 369.28C189.495 369.573 188.508 370.013 187.522 370.6V386ZM219.626 386.32C217.439 386.32 215.799 385.773 214.706 384.68C213.613 383.587 213.066 381.947 213.066 379.76V366.24H216.346V379.36C216.346 380.72 216.693 381.707 217.386 382.32C218.079 382.933 219.173 383.24 220.666 383.24C221.573 383.24 222.479 383.133 223.386 382.92C224.319 382.68 225.253 382.32 226.186 381.84V366.24H229.466V386H226.466L226.306 384.36H226.226C224.839 385.08 223.639 385.587 222.626 385.88C221.613 386.173 220.613 386.32 219.626 386.32ZM238.029 386H234.749V366.24H237.589L237.749 368.16H237.869C238.936 367.36 240.043 366.773 241.189 366.4C242.363 366.027 243.669 365.84 245.109 365.84C247.296 365.84 248.949 366.387 250.069 367.48C251.216 368.573 251.789 370.187 251.789 372.32V386H248.509V372.72C248.509 371.387 248.136 370.4 247.389 369.76C246.643 369.12 245.496 368.8 243.949 368.8C242.989 368.8 242.003 368.96 240.989 369.28C240.003 369.573 239.016 370.013 238.029 370.6V386ZM274.258 376.08C274.258 379.813 273.564 382.453 272.178 384C270.818 385.547 268.471 386.32 265.138 386.32C261.698 386.32 259.311 385.573 257.978 384.08C256.644 382.587 255.978 379.92 255.978 376.08C255.978 372.32 256.658 369.68 258.018 368.16C259.404 366.613 261.778 365.84 265.138 365.84C268.578 365.84 270.951 366.587 272.258 368.08C273.591 369.573 274.258 372.24 274.258 376.08ZM259.258 376.04C259.258 378.973 259.644 380.92 260.418 381.88C261.191 382.813 262.764 383.28 265.138 383.28C267.431 383.28 268.978 382.787 269.778 381.8C270.578 380.787 270.978 378.867 270.978 376.04C270.978 373.107 270.591 371.173 269.818 370.24C269.071 369.28 267.511 368.8 265.138 368.8C262.818 368.8 261.258 369.293 260.458 370.28C259.658 371.267 259.258 373.187 259.258 376.04ZM279.542 369.04H276.582V366.24H279.542V365.76C279.542 363.467 280.102 361.773 281.222 360.68C282.342 359.56 284.062 359 286.382 359C286.969 359 287.556 359.027 288.142 359.08C288.729 359.133 289.276 359.213 289.782 359.32V362.12C289.462 362.04 289.022 361.987 288.462 361.96C287.929 361.907 287.396 361.88 286.862 361.88C285.342 361.88 284.289 362.16 283.702 362.72C283.116 363.253 282.822 364.24 282.822 365.68V366.24H289.182V369.04H282.822V386H279.542V369.04ZM293.566 369.04H290.606V366.24H293.566V365.76C293.566 363.467 294.072 361.773 295.086 360.68C296.099 359.56 297.632 359 299.686 359C300.166 359 300.619 359.027 301.046 359.08C301.499 359.107 302.006 359.187 302.566 359.32V362.12C302.272 362.04 301.912 361.987 301.486 361.96C301.086 361.907 300.686 361.88 300.286 361.88C299.032 361.88 298.139 362.16 297.606 362.72C297.099 363.28 296.846 364.267 296.846 365.68V366.24H301.966V369.04H296.846V386H293.566V369.04ZM309.566 362.8H306.046V359.4H309.566V362.8ZM309.446 386H306.166V366.24H309.446V386ZM328.51 382.08V384.84C327.844 385.267 326.844 385.627 325.51 385.92C324.204 386.187 322.83 386.32 321.39 386.32C318.59 386.32 316.617 385.56 315.47 384.04C314.35 382.52 313.79 379.867 313.79 376.08C313.79 372.373 314.524 369.747 315.99 368.2C317.457 366.627 319.95 365.84 323.47 365.84C324.244 365.84 324.937 365.867 325.55 365.92C326.19 365.947 327.004 366.027 327.99 366.16V369.08C327.004 368.947 326.19 368.867 325.55 368.84C324.937 368.813 324.244 368.8 323.47 368.8C320.964 368.8 319.27 369.32 318.39 370.36C317.51 371.373 317.07 373.28 317.07 376.08C317.07 378.88 317.417 380.787 318.11 381.8C318.804 382.787 320.137 383.28 322.11 383.28C323.204 383.28 324.337 383.173 325.51 382.96C326.684 382.72 327.684 382.427 328.51 382.08ZM335.688 362.8H332.168V359.4H335.688V362.8ZM335.568 386H332.288V366.24H335.568V386ZM345.323 386.32C343.296 386.32 341.803 385.84 340.843 384.88C339.91 383.893 339.443 382.347 339.443 380.24C339.443 378.107 340.016 376.6 341.163 375.72C342.31 374.813 344.256 374.36 347.003 374.36C347.91 374.36 348.803 374.4 349.683 374.48C350.563 374.56 351.39 374.68 352.163 374.84V372.92C352.163 371.453 351.79 370.4 351.043 369.76C350.296 369.12 349.096 368.8 347.443 368.8C346.216 368.8 345.136 368.853 344.203 368.96C343.27 369.04 342.336 369.187 341.403 369.4V366.56C342.47 366.293 343.55 366.107 344.643 366C345.763 365.893 347.03 365.84 348.443 365.84C350.816 365.84 352.576 366.4 353.723 367.52C354.87 368.613 355.443 370.32 355.443 372.64V386H352.443L352.283 384.16H352.203C351.403 384.8 350.363 385.32 349.083 385.72C347.83 386.12 346.576 386.32 345.323 386.32ZM347.363 377.04C345.55 377.04 344.283 377.267 343.563 377.72C342.87 378.147 342.523 378.92 342.523 380.04C342.523 381.213 342.816 382.067 343.403 382.6C343.99 383.107 344.95 383.36 346.283 383.36C347.323 383.36 348.39 383.2 349.483 382.88C350.576 382.56 351.47 382.16 352.163 381.68V377.44C351.283 377.307 350.456 377.213 349.683 377.16C348.936 377.08 348.163 377.04 347.363 377.04ZM363.85 359.4V386H360.57V359.4H363.85ZM389.04 359.4H392.32V386H389.48L389.24 384.16H389.16C388.387 384.88 387.44 385.427 386.32 385.8C385.227 386.147 383.96 386.32 382.52 386.32C379.827 386.32 377.894 385.52 376.72 383.92C375.574 382.32 375 379.707 375 376.08C375 372.453 375.707 369.84 377.12 368.24C378.534 366.64 380.894 365.84 384.2 365.84C385.134 365.84 386 365.92 386.8 366.08C387.627 366.213 388.374 366.413 389.04 366.68V359.4ZM384.6 368.8C382.12 368.8 380.44 369.32 379.56 370.36C378.707 371.4 378.28 373.307 378.28 376.08C378.28 378.773 378.654 380.653 379.4 381.72C380.174 382.76 381.6 383.28 383.68 383.28C384.667 383.28 385.614 383.16 386.52 382.92C387.427 382.653 388.267 382.267 389.04 381.76V369.6C388.4 369.333 387.72 369.133 387 369C386.28 368.867 385.48 368.8 384.6 368.8ZM402.081 386.32C400.054 386.32 398.561 385.84 397.601 384.88C396.668 383.893 396.201 382.347 396.201 380.24C396.201 378.107 396.774 376.6 397.921 375.72C399.068 374.813 401.014 374.36 403.761 374.36C404.668 374.36 405.561 374.4 406.441 374.48C407.321 374.56 408.148 374.68 408.921 374.84V372.92C408.921 371.453 408.548 370.4 407.801 369.76C407.054 369.12 405.854 368.8 404.201 368.8C402.974 368.8 401.894 368.853 400.961 368.96C400.028 369.04 399.094 369.187 398.161 369.4V366.56C399.228 366.293 400.308 366.107 401.401 366C402.521 365.893 403.788 365.84 405.201 365.84C407.574 365.84 409.334 366.4 410.481 367.52C411.628 368.613 412.201 370.32 412.201 372.64V386H409.201L409.041 384.16H408.961C408.161 384.8 407.121 385.32 405.841 385.72C404.588 386.12 403.334 386.32 402.081 386.32ZM404.121 377.04C402.308 377.04 401.041 377.267 400.321 377.72C399.628 378.147 399.281 378.92 399.281 380.04C399.281 381.213 399.574 382.067 400.161 382.6C400.748 383.107 401.708 383.36 403.041 383.36C404.081 383.36 405.148 383.2 406.241 382.88C407.334 382.56 408.228 382.16 408.921 381.68V377.44C408.041 377.307 407.214 377.213 406.441 377.16C405.694 377.08 404.921 377.04 404.121 377.04ZM424.128 368.8C422.421 368.8 421.234 369 420.567 369.4C419.928 369.8 419.608 370.613 419.608 371.84C419.608 372.48 419.754 372.973 420.048 373.32C420.368 373.64 420.861 373.853 421.528 373.96L426.608 374.72C428.208 374.96 429.328 375.467 429.968 376.24C430.608 376.987 430.928 378.173 430.928 379.8C430.928 382.093 430.381 383.76 429.288 384.8C428.194 385.813 426.381 386.32 423.848 386.32C422.328 386.32 420.914 386.24 419.608 386.08C418.301 385.92 417.221 385.707 416.368 385.44V382.36C417.221 382.627 418.261 382.853 419.488 383.04C420.741 383.2 422.021 383.28 423.328 383.28C424.981 383.28 426.114 383.04 426.728 382.56C427.341 382.08 427.648 381.227 427.648 380C427.648 379.227 427.474 378.667 427.128 378.32C426.781 377.947 426.154 377.693 425.247 377.56L420.168 376.8C418.888 376.613 417.928 376.12 417.288 375.32C416.674 374.52 416.354 373.36 416.328 371.84C416.328 369.76 416.941 368.24 418.168 367.28C419.421 366.32 421.341 365.84 423.928 365.84C424.994 365.84 425.954 365.867 426.808 365.92C427.688 365.973 428.608 366.08 429.568 366.24V369.16C428.874 369.053 428.061 368.973 427.128 368.92C426.194 368.84 425.194 368.8 424.128 368.8ZM438.186 386H434.906V359.4H438.186V367.84C439.386 367.173 440.572 366.68 441.746 366.36C442.946 366.013 444.132 365.84 445.306 365.84C447.492 365.84 449.132 366.387 450.226 367.48C451.346 368.573 451.906 370.187 451.906 372.32V386H448.626V372.72C448.626 371.36 448.266 370.373 447.546 369.76C446.852 369.12 445.759 368.8 444.266 368.8C443.279 368.8 442.252 368.933 441.186 369.2C440.146 369.467 439.146 369.84 438.186 370.32V386ZM466.775 365.84C469.468 365.84 471.388 366.64 472.535 368.24C473.708 369.813 474.295 372.4 474.295 376C474.295 379.68 473.575 382.32 472.135 383.92C470.695 385.52 468.282 386.32 464.895 386.32C463.375 386.32 461.948 386.227 460.615 386.04C459.282 385.88 458.068 385.627 456.975 385.28V359.4H460.255V367.6C461.188 367.04 462.215 366.613 463.335 366.32C464.455 366 465.602 365.84 466.775 365.84ZM471.015 376C471.015 373.307 470.628 371.44 469.855 370.4C469.108 369.333 467.695 368.8 465.615 368.8C464.655 368.8 463.708 368.933 462.775 369.2C461.842 369.44 461.002 369.787 460.255 370.24V382.76C460.842 382.92 461.508 383.053 462.255 383.16C463.002 383.24 463.815 383.28 464.695 383.28C467.175 383.28 468.842 382.76 469.695 381.72C470.575 380.68 471.015 378.773 471.015 376ZM495.977 376.08C495.977 379.813 495.283 382.453 493.897 384C492.537 385.547 490.19 386.32 486.857 386.32C483.417 386.32 481.03 385.573 479.697 384.08C478.363 382.587 477.697 379.92 477.697 376.08C477.697 372.32 478.377 369.68 479.737 368.16C481.123 366.613 483.497 365.84 486.857 365.84C490.297 365.84 492.67 366.587 493.977 368.08C495.31 369.573 495.977 372.24 495.977 376.08ZM480.977 376.04C480.977 378.973 481.363 380.92 482.137 381.88C482.91 382.813 484.483 383.28 486.857 383.28C489.15 383.28 490.697 382.787 491.497 381.8C492.297 380.787 492.697 378.867 492.697 376.04C492.697 373.107 492.31 371.173 491.537 370.24C490.79 369.28 489.23 368.8 486.857 368.8C484.537 368.8 482.977 369.293 482.177 370.28C481.377 371.267 480.977 373.187 480.977 376.04ZM504.815 386.32C502.789 386.32 501.295 385.84 500.335 384.88C499.402 383.893 498.935 382.347 498.935 380.24C498.935 378.107 499.509 376.6 500.655 375.72C501.802 374.813 503.749 374.36 506.495 374.36C507.402 374.36 508.295 374.4 509.175 374.48C510.055 374.56 510.882 374.68 511.655 374.84V372.92C511.655 371.453 511.282 370.4 510.535 369.76C509.789 369.12 508.589 368.8 506.935 368.8C505.709 368.8 504.629 368.853 503.695 368.96C502.762 369.04 501.829 369.187 500.895 369.4V366.56C501.962 366.293 503.042 366.107 504.135 366C505.255 365.893 506.522 365.84 507.935 365.84C510.309 365.84 512.069 366.4 513.215 367.52C514.362 368.613 514.935 370.32 514.935 372.64V386H511.935L511.775 384.16H511.695C510.895 384.8 509.855 385.32 508.575 385.72C507.322 386.12 506.069 386.32 504.815 386.32ZM506.855 377.04C505.042 377.04 503.775 377.267 503.055 377.72C502.362 378.147 502.015 378.92 502.015 380.04C502.015 381.213 502.309 382.067 502.895 382.6C503.482 383.107 504.442 383.36 505.775 383.36C506.815 383.36 507.882 383.2 508.975 382.88C510.069 382.56 510.962 382.16 511.655 381.68V377.44C510.775 377.307 509.949 377.213 509.175 377.16C508.429 377.08 507.655 377.04 506.855 377.04ZM523.342 386H520.062V366.24H523.062L523.222 367.92H523.382C524.422 367.307 525.462 366.853 526.502 366.56C527.542 366.24 528.569 366.08 529.582 366.08C530.009 366.08 530.289 366.08 530.422 366.08C530.582 366.08 530.702 366.093 530.782 366.12V369.28C530.595 369.227 530.355 369.2 530.062 369.2C529.795 369.173 529.369 369.16 528.782 369.16C527.822 369.16 526.875 369.28 525.942 369.52C525.035 369.733 524.169 370.067 523.342 370.52V386ZM546.697 359.4H549.977V386H547.137L546.897 384.16H546.817C546.043 384.88 545.097 385.427 543.977 385.8C542.883 386.147 541.617 386.32 540.177 386.32C537.483 386.32 535.55 385.52 534.377 383.92C533.23 382.32 532.657 379.707 532.657 376.08C532.657 372.453 533.363 369.84 534.777 368.24C536.19 366.64 538.55 365.84 541.857 365.84C542.79 365.84 543.657 365.92 544.457 366.08C545.283 366.213 546.03 366.413 546.697 366.68V359.4ZM542.257 368.8C539.777 368.8 538.097 369.32 537.217 370.36C536.363 371.4 535.937 373.307 535.937 376.08C535.937 378.773 536.31 380.653 537.057 381.72C537.83 382.76 539.257 383.28 541.337 383.28C542.323 383.28 543.27 383.16 544.177 382.92C545.083 382.653 545.923 382.267 546.697 381.76V369.6C546.057 369.333 545.377 369.133 544.657 369C543.937 368.867 543.137 368.8 542.257 368.8ZM566.573 386.32C564.546 386.32 563.053 385.84 562.093 384.88C561.16 383.893 560.693 382.347 560.693 380.24C560.693 378.107 561.266 376.6 562.413 375.72C563.56 374.813 565.506 374.36 568.253 374.36C569.16 374.36 570.053 374.4 570.933 374.48C571.813 374.56 572.64 374.68 573.413 374.84V372.92C573.413 371.453 573.04 370.4 572.293 369.76C571.546 369.12 570.346 368.8 568.693 368.8C567.466 368.8 566.386 368.853 565.453 368.96C564.52 369.04 563.586 369.187 562.653 369.4V366.56C563.72 366.293 564.8 366.107 565.893 366C567.013 365.893 568.28 365.84 569.693 365.84C572.066 365.84 573.826 366.4 574.973 367.52C576.12 368.613 576.693 370.32 576.693 372.64V386H573.693L573.533 384.16H573.453C572.653 384.8 571.613 385.32 570.333 385.72C569.08 386.12 567.826 386.32 566.573 386.32ZM568.613 377.04C566.8 377.04 565.533 377.267 564.813 377.72C564.12 378.147 563.773 378.92 563.773 380.04C563.773 381.213 564.066 382.067 564.653 382.6C565.24 383.107 566.2 383.36 567.533 383.36C568.573 383.36 569.64 383.2 570.733 382.88C571.826 382.56 572.72 382.16 573.413 381.68V377.44C572.533 377.307 571.706 377.213 570.933 377.16C570.186 377.08 569.413 377.04 568.613 377.04ZM585.1 386H581.82V366.24H584.66L584.82 368.16H584.94C586.006 367.36 587.113 366.773 588.26 366.4C589.433 366.027 590.74 365.84 592.18 365.84C594.366 365.84 596.02 366.387 597.14 367.48C598.286 368.573 598.86 370.187 598.86 372.32V386H595.58V372.72C595.58 371.387 595.206 370.4 594.46 369.76C593.713 369.12 592.566 368.8 591.02 368.8C590.06 368.8 589.073 368.96 588.06 369.28C587.073 369.573 586.086 370.013 585.1 370.6V386ZM617.048 359.4H620.328V386H617.488L617.248 384.16H617.168C616.395 384.88 615.448 385.427 614.328 385.8C613.235 386.147 611.968 386.32 610.528 386.32C607.835 386.32 605.901 385.52 604.728 383.92C603.581 382.32 603.008 379.707 603.008 376.08C603.008 372.453 603.715 369.84 605.128 368.24C606.541 366.64 608.901 365.84 612.208 365.84C613.141 365.84 614.008 365.92 614.808 366.08C615.635 366.213 616.381 366.413 617.048 366.68V359.4ZM612.608 368.8C610.128 368.8 608.448 369.32 607.568 370.36C606.715 371.4 606.288 373.307 606.288 376.08C606.288 378.773 606.661 380.653 607.408 381.72C608.181 382.76 609.608 383.28 611.688 383.28C612.675 383.28 613.621 383.16 614.528 382.92C615.435 382.653 616.275 382.267 617.048 381.76V369.6C616.408 369.333 615.728 369.133 615.008 369C614.288 368.867 613.488 368.8 612.608 368.8ZM639.245 368.8C637.538 368.8 636.351 369 635.685 369.4C635.045 369.8 634.725 370.613 634.725 371.84C634.725 372.48 634.871 372.973 635.165 373.32C635.485 373.64 635.978 373.853 636.645 373.96L641.725 374.72C643.325 374.96 644.445 375.467 645.085 376.24C645.725 376.987 646.045 378.173 646.045 379.8C646.045 382.093 645.498 383.76 644.405 384.8C643.311 385.813 641.498 386.32 638.965 386.32C637.445 386.32 636.031 386.24 634.725 386.08C633.418 385.92 632.338 385.707 631.485 385.44V382.36C632.338 382.627 633.378 382.853 634.605 383.04C635.858 383.2 637.138 383.28 638.445 383.28C640.098 383.28 641.231 383.04 641.845 382.56C642.458 382.08 642.765 381.227 642.765 380C642.765 379.227 642.591 378.667 642.245 378.32C641.898 377.947 641.271 377.693 640.365 377.56L635.285 376.8C634.005 376.613 633.045 376.12 632.405 375.32C631.791 374.52 631.471 373.36 631.445 371.84C631.445 369.76 632.058 368.24 633.285 367.28C634.538 366.32 636.458 365.84 639.045 365.84C640.111 365.84 641.071 365.867 641.925 365.92C642.805 365.973 643.725 366.08 644.685 366.24V369.16C643.991 369.053 643.178 368.973 642.245 368.92C641.311 368.84 640.311 368.8 639.245 368.8ZM661.428 382.92V385.68C661.001 385.867 660.414 386.013 659.668 386.12C658.948 386.253 658.254 386.32 657.588 386.32C655.188 386.32 653.468 385.787 652.428 384.72C651.414 383.653 650.908 381.813 650.908 379.2V369.04H647.948V366.24H650.948L651.468 361.44H654.188V366.24H661.228V369.04H654.188V379.08C654.188 380.707 654.481 381.813 655.068 382.4C655.681 382.987 656.748 383.28 658.268 383.28C658.748 383.28 659.294 383.24 659.908 383.16C660.548 383.08 661.054 383 661.428 382.92ZM669.151 386.32C667.125 386.32 665.631 385.84 664.671 384.88C663.738 383.893 663.271 382.347 663.271 380.24C663.271 378.107 663.845 376.6 664.991 375.72C666.138 374.813 668.085 374.36 670.831 374.36C671.738 374.36 672.631 374.4 673.511 374.48C674.391 374.56 675.218 374.68 675.991 374.84V372.92C675.991 371.453 675.618 370.4 674.871 369.76C674.125 369.12 672.925 368.8 671.271 368.8C670.045 368.8 668.965 368.853 668.031 368.96C667.098 369.04 666.165 369.187 665.231 369.4V366.56C666.298 366.293 667.378 366.107 668.471 366C669.591 365.893 670.858 365.84 672.271 365.84C674.645 365.84 676.405 366.4 677.551 367.52C678.698 368.613 679.271 370.32 679.271 372.64V386H676.271L676.111 384.16H676.031C675.231 384.8 674.191 385.32 672.911 385.72C671.658 386.12 670.405 386.32 669.151 386.32ZM671.191 377.04C669.378 377.04 668.111 377.267 667.391 377.72C666.698 378.147 666.351 378.92 666.351 380.04C666.351 381.213 666.645 382.067 667.231 382.6C667.818 383.107 668.778 383.36 670.111 383.36C671.151 383.36 672.218 383.2 673.311 382.88C674.405 382.56 675.298 382.16 675.991 381.68V377.44C675.111 377.307 674.285 377.213 673.511 377.16C672.765 377.08 671.991 377.04 671.191 377.04ZM695.763 382.92V385.68C695.337 385.867 694.75 386.013 694.003 386.12C693.283 386.253 692.59 386.32 691.923 386.32C689.523 386.32 687.803 385.787 686.763 384.72C685.75 383.653 685.243 381.813 685.243 379.2V369.04H682.283V366.24H685.283L685.803 361.44H688.523V366.24H695.563V369.04H688.523V379.08C688.523 380.707 688.817 381.813 689.403 382.4C690.017 382.987 691.083 383.28 692.603 383.28C693.083 383.28 693.63 383.24 694.243 383.16C694.883 383.08 695.39 383 695.763 382.92ZM705.807 368.8C704.101 368.8 702.914 369 702.247 369.4C701.607 369.8 701.287 370.613 701.287 371.84C701.287 372.48 701.434 372.973 701.727 373.32C702.047 373.64 702.541 373.853 703.207 373.96L708.287 374.72C709.887 374.96 711.007 375.467 711.647 376.24C712.287 376.987 712.607 378.173 712.607 379.8C712.607 382.093 712.061 383.76 710.967 384.8C709.874 385.813 708.061 386.32 705.527 386.32C704.007 386.32 702.594 386.24 701.287 386.08C699.981 385.92 698.901 385.707 698.047 385.44V382.36C698.901 382.627 699.941 382.853 701.167 383.04C702.421 383.2 703.701 383.28 705.007 383.28C706.661 383.28 707.794 383.04 708.407 382.56C709.021 382.08 709.327 381.227 709.327 380C709.327 379.227 709.154 378.667 708.807 378.32C708.461 377.947 707.834 377.693 706.927 377.56L701.847 376.8C700.567 376.613 699.607 376.12 698.967 375.32C698.354 374.52 698.034 373.36 698.007 371.84C698.007 369.76 698.621 368.24 699.847 367.28C701.101 366.32 703.021 365.84 705.607 365.84C706.674 365.84 707.634 365.867 708.487 365.92C709.367 365.973 710.287 366.08 711.247 366.24V369.16C710.554 369.053 709.741 368.973 708.807 368.92C707.874 368.84 706.874 368.8 705.807 368.8ZM728.007 372V374.56H715.247V372H728.007ZM743.693 382.92V385.68C743.266 385.867 742.68 386.013 741.933 386.12C741.213 386.253 740.52 386.32 739.853 386.32C737.453 386.32 735.733 385.787 734.693 384.72C733.68 383.653 733.173 381.813 733.173 379.2V369.04H730.213V366.24H733.213L733.733 361.44H736.453V366.24H743.493V369.04H736.453V379.08C736.453 380.707 736.746 381.813 737.333 382.4C737.946 382.987 739.013 383.28 740.533 383.28C741.013 383.28 741.56 383.24 742.173 383.16C742.813 383.08 743.32 383 743.693 382.92ZM750.217 386H746.937V366.24H749.937L750.097 367.92H750.257C751.297 367.307 752.337 366.853 753.377 366.56C754.417 366.24 755.444 366.08 756.457 366.08C756.884 366.08 757.164 366.08 757.297 366.08C757.457 366.08 757.577 366.093 757.657 366.12V369.28C757.47 369.227 757.23 369.2 756.937 369.2C756.67 369.173 756.244 369.16 755.657 369.16C754.697 369.16 753.75 369.28 752.817 369.52C751.91 369.733 751.044 370.067 750.217 370.52V386ZM765.011 386.32C762.984 386.32 761.491 385.84 760.531 384.88C759.597 383.893 759.131 382.347 759.131 380.24C759.131 378.107 759.704 376.6 760.851 375.72C761.997 374.813 763.944 374.36 766.691 374.36C767.597 374.36 768.491 374.4 769.371 374.48C770.251 374.56 771.077 374.68 771.851 374.84V372.92C771.851 371.453 771.477 370.4 770.731 369.76C769.984 369.12 768.784 368.8 767.131 368.8C765.904 368.8 764.824 368.853 763.891 368.96C762.957 369.04 762.024 369.187 761.091 369.4V366.56C762.157 366.293 763.237 366.107 764.331 366C765.451 365.893 766.717 365.84 768.131 365.84C770.504 365.84 772.264 366.4 773.411 367.52C774.557 368.613 775.131 370.32 775.131 372.64V386H772.131L771.971 384.16H771.891C771.091 384.8 770.051 385.32 768.771 385.72C767.517 386.12 766.264 386.32 765.011 386.32ZM767.051 377.04C765.237 377.04 763.971 377.267 763.251 377.72C762.557 378.147 762.211 378.92 762.211 380.04C762.211 381.213 762.504 382.067 763.091 382.6C763.677 383.107 764.637 383.36 765.971 383.36C767.011 383.36 768.077 383.2 769.171 382.88C770.264 382.56 771.157 382.16 771.851 381.68V377.44C770.971 377.307 770.144 377.213 769.371 377.16C768.624 377.08 767.851 377.04 767.051 377.04ZM794.057 382.08V384.84C793.391 385.267 792.391 385.627 791.057 385.92C789.751 386.187 788.377 386.32 786.937 386.32C784.137 386.32 782.164 385.56 781.017 384.04C779.897 382.52 779.337 379.867 779.337 376.08C779.337 372.373 780.071 369.747 781.537 368.2C783.004 366.627 785.497 365.84 789.017 365.84C789.791 365.84 790.484 365.867 791.097 365.92C791.737 365.947 792.551 366.027 793.537 366.16V369.08C792.551 368.947 791.737 368.867 791.097 368.84C790.484 368.813 789.791 368.8 789.017 368.8C786.511 368.8 784.817 369.32 783.937 370.36C783.057 371.373 782.617 373.28 782.617 376.08C782.617 378.88 782.964 380.787 783.657 381.8C784.351 382.787 785.684 383.28 787.657 383.28C788.751 383.28 789.884 383.173 791.057 382.96C792.231 382.72 793.231 382.427 794.057 382.08ZM801.115 377.44V386H797.835V359.4H801.115V374.6H803.475L810.395 366.24H814.355L806.155 375.84L814.755 386H810.635L803.595 377.44H801.115ZM820.962 362.8H817.442V359.4H820.962V362.8ZM820.842 386H817.562V366.24H820.842V386ZM829.397 386H826.117V366.24H828.957L829.117 368.16H829.237C830.303 367.36 831.41 366.773 832.557 366.4C833.73 366.027 835.037 365.84 836.477 365.84C838.663 365.84 840.317 366.387 841.437 367.48C842.583 368.573 843.157 370.187 843.157 372.32V386H839.877V372.72C839.877 371.387 839.503 370.4 838.757 369.76C838.01 369.12 836.863 368.8 835.317 368.8C834.357 368.8 833.37 368.96 832.357 369.28C831.37 369.573 830.383 370.013 829.397 370.6V386ZM856.305 392.48C854.972 392.48 853.718 392.387 852.545 392.2C851.398 392.04 850.452 391.813 849.705 391.52V388.6C850.318 388.84 851.212 389.04 852.385 389.2C853.585 389.36 854.772 389.44 855.945 389.44C857.945 389.44 859.332 389.04 860.105 388.24C860.878 387.467 861.265 386.08 861.265 384.08V382.84C860.278 383.427 859.225 383.88 858.105 384.2C856.985 384.493 855.852 384.64 854.705 384.64C852.065 384.64 850.172 383.907 849.025 382.44C847.905 380.973 847.345 378.573 847.345 375.24C847.345 371.853 848.065 369.44 849.505 368C850.972 366.56 853.452 365.84 856.945 365.84C858.198 365.84 859.545 365.92 860.985 366.08C862.425 366.213 863.612 366.387 864.545 366.6V383.16C864.545 386.627 863.932 389.04 862.705 390.4C861.478 391.787 859.345 392.48 856.305 392.48ZM856.945 368.8C854.385 368.8 852.692 369.24 851.865 370.12C851.038 371 850.625 372.707 850.625 375.24C850.625 377.64 850.972 379.307 851.665 380.24C852.385 381.147 853.758 381.6 855.785 381.6C856.665 381.6 857.572 381.48 858.505 381.24C859.465 380.973 860.385 380.613 861.265 380.16V369.24C860.625 369.107 859.932 369 859.185 368.92C858.465 368.84 857.718 368.8 856.945 368.8ZM897.479 366.24H901.039L895.559 386H891.719L887.399 370.6L883.359 386H879.519L874.039 366.24H877.639L881.479 382.92L885.759 366.24H889.039L893.599 382.92L897.479 366.24ZM919.003 382.16V384.92C918.31 385.293 917.283 385.627 915.923 385.92C914.59 386.187 913.23 386.32 911.843 386.32C908.75 386.32 906.537 385.52 905.203 383.92C903.87 382.32 903.203 379.68 903.203 376C903.203 372.453 903.897 369.88 905.283 368.28C906.67 366.653 908.883 365.84 911.923 365.84C914.75 365.84 916.777 366.48 918.003 367.76C919.23 369.013 919.843 371.12 919.843 374.08C919.843 374.613 919.83 375.107 919.803 375.56C919.777 376.013 919.723 376.56 919.643 377.2H906.523C906.55 379.387 906.99 380.947 907.843 381.88C908.723 382.813 910.23 383.28 912.363 383.28C913.51 383.28 914.71 383.173 915.963 382.96C917.217 382.747 918.23 382.48 919.003 382.16ZM916.843 373.64C916.817 371.88 916.43 370.64 915.683 369.92C914.937 369.173 913.683 368.8 911.923 368.8C909.95 368.8 908.55 369.227 907.723 370.08C906.923 370.907 906.523 372.373 906.523 374.48H916.803C916.803 374.427 916.803 374.307 916.803 374.12C916.83 373.907 916.843 373.747 916.843 373.64ZM933.845 365.84C936.539 365.84 938.459 366.64 939.605 368.24C940.779 369.813 941.365 372.4 941.365 376C941.365 379.68 940.645 382.32 939.205 383.92C937.765 385.52 935.352 386.32 931.965 386.32C930.445 386.32 929.019 386.227 927.685 386.04C926.352 385.88 925.139 385.627 924.045 385.28V359.4H927.325V367.6C928.259 367.04 929.285 366.613 930.405 366.32C931.525 366 932.672 365.84 933.845 365.84ZM938.085 376C938.085 373.307 937.699 371.44 936.925 370.4C936.179 369.333 934.765 368.8 932.685 368.8C931.725 368.8 930.779 368.933 929.845 369.2C928.912 369.44 928.072 369.787 927.325 370.24V382.76C927.912 382.92 928.579 383.053 929.325 383.16C930.072 383.24 930.885 383.28 931.765 383.28C934.245 383.28 935.912 382.76 936.765 381.72C937.645 380.68 938.085 378.773 938.085 376ZM952.487 368.8C950.78 368.8 949.594 369 948.927 369.4C948.287 369.8 947.967 370.613 947.967 371.84C947.967 372.48 948.114 372.973 948.407 373.32C948.727 373.64 949.22 373.853 949.887 373.96L954.967 374.72C956.567 374.96 957.687 375.467 958.327 376.24C958.967 376.987 959.287 378.173 959.287 379.8C959.287 382.093 958.74 383.76 957.647 384.8C956.554 385.813 954.74 386.32 952.207 386.32C950.687 386.32 949.274 386.24 947.967 386.08C946.66 385.92 945.58 385.707 944.727 385.44V382.36C945.58 382.627 946.62 382.853 947.847 383.04C949.1 383.2 950.38 383.28 951.687 383.28C953.34 383.28 954.474 383.04 955.087 382.56C955.7 382.08 956.007 381.227 956.007 380C956.007 379.227 955.834 378.667 955.487 378.32C955.14 377.947 954.514 377.693 953.607 377.56L948.527 376.8C947.247 376.613 946.287 376.12 945.647 375.32C945.034 374.52 944.714 373.36 944.687 371.84C944.687 369.76 945.3 368.24 946.527 367.28C947.78 366.32 949.7 365.84 952.287 365.84C953.354 365.84 954.314 365.867 955.167 365.92C956.047 365.973 956.967 366.08 957.927 366.24V369.16C957.234 369.053 956.42 368.973 955.487 368.92C954.554 368.84 953.554 368.8 952.487 368.8ZM966.665 362.8H963.145V359.4H966.665V362.8ZM966.545 386H963.265V366.24H966.545V386ZM983.42 382.92V385.68C982.993 385.867 982.406 386.013 981.66 386.12C980.94 386.253 980.246 386.32 979.58 386.32C977.18 386.32 975.46 385.787 974.42 384.72C973.406 383.653 972.9 381.813 972.9 379.2V369.04H969.94V366.24H972.94L973.46 361.44H976.18V366.24H983.22V369.04H976.18V379.08C976.18 380.707 976.473 381.813 977.06 382.4C977.673 382.987 978.74 383.28 980.26 383.28C980.74 383.28 981.286 383.24 981.9 383.16C982.54 383.08 983.046 383 983.42 382.92ZM1001.27 382.16V384.92C1000.58 385.293 999.549 385.627 998.189 385.92C996.856 386.187 995.496 386.32 994.109 386.32C991.016 386.32 988.802 385.52 987.469 383.92C986.136 382.32 985.469 379.68 985.469 376C985.469 372.453 986.162 369.88 987.549 368.28C988.936 366.653 991.149 365.84 994.189 365.84C997.016 365.84 999.042 366.48 1000.27 367.76C1001.5 369.013 1002.11 371.12 1002.11 374.08C1002.11 374.613 1002.1 375.107 1002.07 375.56C1002.04 376.013 1001.99 376.56 1001.91 377.2H988.789C988.816 379.387 989.256 380.947 990.109 381.88C990.989 382.813 992.496 383.28 994.629 383.28C995.776 383.28 996.976 383.173 998.229 382.96C999.482 382.747 1000.5 382.48 1001.27 382.16ZM999.109 373.64C999.082 371.88 998.696 370.64 997.949 369.92C997.202 369.173 995.949 368.8 994.189 368.8C992.216 368.8 990.816 369.227 989.989 370.08C989.189 370.907 988.789 372.373 988.789 374.48H999.069C999.069 374.427 999.069 374.307 999.069 374.12C999.096 373.907 999.109 373.747 999.109 373.64ZM1014.35 369.04H1011.39V366.24H1014.35V365.76C1014.35 363.467 1014.91 361.773 1016.03 360.68C1017.15 359.56 1018.87 359 1021.19 359C1021.77 359 1022.36 359.027 1022.95 359.08C1023.53 359.133 1024.08 359.213 1024.59 359.32V362.12C1024.27 362.04 1023.83 361.987 1023.27 361.96C1022.73 361.907 1022.2 361.88 1021.67 361.88C1020.15 361.88 1019.09 362.16 1018.51 362.72C1017.92 363.253 1017.63 364.24 1017.63 365.68V366.24H1023.99V369.04H1017.63V386H1014.35V369.04ZM1043.95 376.08C1043.95 379.813 1043.25 382.453 1041.87 384C1040.51 385.547 1038.16 386.32 1034.83 386.32C1031.39 386.32 1029 385.573 1027.67 384.08C1026.33 382.587 1025.67 379.92 1025.67 376.08C1025.67 372.32 1026.35 369.68 1027.71 368.16C1029.09 366.613 1031.47 365.84 1034.83 365.84C1038.27 365.84 1040.64 366.587 1041.95 368.08C1043.28 369.573 1043.95 372.24 1043.95 376.08ZM1028.95 376.04C1028.95 378.973 1029.33 380.92 1030.11 381.88C1030.88 382.813 1032.45 383.28 1034.83 383.28C1037.12 383.28 1038.67 382.787 1039.47 381.8C1040.27 380.787 1040.67 378.867 1040.67 376.04C1040.67 373.107 1040.28 371.173 1039.51 370.24C1038.76 369.28 1037.2 368.8 1034.83 368.8C1032.51 368.8 1030.95 369.293 1030.15 370.28C1029.35 371.267 1028.95 373.187 1028.95 376.04ZM1051.58 386H1048.3V366.24H1051.3L1051.46 367.92H1051.62C1052.66 367.307 1053.7 366.853 1054.74 366.56C1055.78 366.24 1056.81 366.08 1057.82 366.08C1058.25 366.08 1058.53 366.08 1058.66 366.08C1058.82 366.08 1058.94 366.093 1059.02 366.12V369.28C1058.84 369.227 1058.6 369.2 1058.3 369.2C1058.04 369.173 1057.61 369.16 1057.02 369.16C1056.06 369.16 1055.12 369.28 1054.18 369.52C1053.28 369.733 1052.41 370.067 1051.58 370.52V386ZM1086.74 378.8C1086.74 381.36 1086.05 383.2 1084.66 384.32C1083.27 385.44 1081.05 386 1077.98 386H1068.74V360.92H1077.94C1080.71 360.92 1082.69 361.387 1083.86 362.32C1085.03 363.253 1085.62 364.853 1085.62 367.12C1085.62 368.747 1085.33 370 1084.74 370.88C1084.18 371.76 1083.22 372.36 1081.86 372.68C1083.49 372.893 1084.7 373.507 1085.5 374.52C1086.33 375.533 1086.74 376.96 1086.74 378.8ZM1082.46 367.6C1082.46 366.213 1082.13 365.253 1081.46 364.72C1080.79 364.16 1079.63 363.88 1077.98 363.88H1072.14V371.72H1077.98C1079.58 371.72 1080.73 371.4 1081.42 370.76C1082.11 370.12 1082.46 369.067 1082.46 367.6ZM1083.46 378.6C1083.46 377.107 1083.05 376.067 1082.22 375.48C1081.39 374.893 1079.98 374.6 1077.98 374.6H1072.14V382.96H1077.98C1079.98 382.96 1081.39 382.64 1082.22 382C1083.05 381.36 1083.46 380.227 1083.46 378.6ZM1095.36 386.32C1093.34 386.32 1091.84 385.84 1090.88 384.88C1089.95 383.893 1089.48 382.347 1089.48 380.24C1089.48 378.107 1090.06 376.6 1091.2 375.72C1092.35 374.813 1094.3 374.36 1097.04 374.36C1097.95 374.36 1098.84 374.4 1099.72 374.48C1100.6 374.56 1101.43 374.68 1102.2 374.84V372.92C1102.2 371.453 1101.83 370.4 1101.08 369.76C1100.34 369.12 1099.14 368.8 1097.48 368.8C1096.26 368.8 1095.18 368.853 1094.24 368.96C1093.31 369.04 1092.38 369.187 1091.44 369.4V366.56C1092.51 366.293 1093.59 366.107 1094.68 366C1095.8 365.893 1097.07 365.84 1098.48 365.84C1100.86 365.84 1102.62 366.4 1103.76 367.52C1104.91 368.613 1105.48 370.32 1105.48 372.64V386H1102.48L1102.32 384.16H1102.24C1101.44 384.8 1100.4 385.32 1099.12 385.72C1097.87 386.12 1096.62 386.32 1095.36 386.32ZM1097.4 377.04C1095.59 377.04 1094.32 377.267 1093.6 377.72C1092.91 378.147 1092.56 378.92 1092.56 380.04C1092.56 381.213 1092.86 382.067 1093.44 382.6C1094.03 383.107 1094.99 383.36 1096.32 383.36C1097.36 383.36 1098.43 383.2 1099.52 382.88C1100.62 382.56 1101.51 382.16 1102.2 381.68V377.44C1101.32 377.307 1100.5 377.213 1099.72 377.16C1098.98 377.08 1098.2 377.04 1097.4 377.04ZM1121.97 382.92V385.68C1121.55 385.867 1120.96 386.013 1120.21 386.12C1119.49 386.253 1118.8 386.32 1118.13 386.32C1115.73 386.32 1114.01 385.787 1112.97 384.72C1111.96 383.653 1111.45 381.813 1111.45 379.2V369.04H1108.49V366.24H1111.49L1112.01 361.44H1114.73V366.24H1121.77V369.04H1114.73V379.08C1114.73 380.707 1115.03 381.813 1115.61 382.4C1116.23 382.987 1117.29 383.28 1118.81 383.28C1119.29 383.28 1119.84 383.24 1120.45 383.16C1121.09 383.08 1121.6 383 1121.97 382.92ZM1136.82 382.92V385.68C1136.39 385.867 1135.8 386.013 1135.06 386.12C1134.34 386.253 1133.64 386.32 1132.98 386.32C1130.58 386.32 1128.86 385.787 1127.82 384.72C1126.8 383.653 1126.3 381.813 1126.3 379.2V369.04H1123.34V366.24H1126.34L1126.86 361.44H1129.58V366.24H1136.62V369.04H1129.58V379.08C1129.58 380.707 1129.87 381.813 1130.46 382.4C1131.07 382.987 1132.14 383.28 1133.66 383.28C1134.14 383.28 1134.68 383.24 1135.3 383.16C1135.94 383.08 1136.44 383 1136.82 382.92ZM1143.34 359.4V386H1140.06V359.4H1143.34ZM1163.46 382.16V384.92C1162.76 385.293 1161.74 385.627 1160.38 385.92C1159.04 386.187 1157.68 386.32 1156.3 386.32C1153.2 386.32 1150.99 385.52 1149.66 383.92C1148.32 382.32 1147.66 379.68 1147.66 376C1147.66 372.453 1148.35 369.88 1149.74 368.28C1151.12 366.653 1153.34 365.84 1156.38 365.84C1159.2 365.84 1161.23 366.48 1162.46 367.76C1163.68 369.013 1164.3 371.12 1164.3 374.08C1164.3 374.613 1164.28 375.107 1164.26 375.56C1164.23 376.013 1164.18 376.56 1164.1 377.2H1150.98C1151 379.387 1151.44 380.947 1152.3 381.88C1153.18 382.813 1154.68 383.28 1156.82 383.28C1157.96 383.28 1159.16 383.173 1160.42 382.96C1161.67 382.747 1162.68 382.48 1163.46 382.16ZM1161.3 373.64C1161.27 371.88 1160.88 370.64 1160.14 369.92C1159.39 369.173 1158.14 368.8 1156.38 368.8C1154.4 368.8 1153 369.227 1152.18 370.08C1151.38 370.907 1150.98 372.373 1150.98 374.48H1161.26C1161.26 374.427 1161.26 374.307 1161.26 374.12C1161.28 373.907 1161.3 373.747 1161.3 373.64ZM1171.82 359.4V386H1168.54V359.4H1171.82ZM1194.45 376.08C1194.45 379.813 1193.76 382.453 1192.37 384C1191.01 385.547 1188.67 386.32 1185.33 386.32C1181.89 386.32 1179.51 385.573 1178.17 384.08C1176.84 382.587 1176.17 379.92 1176.17 376.08C1176.17 372.32 1176.85 369.68 1178.21 368.16C1179.6 366.613 1181.97 365.84 1185.33 365.84C1188.77 365.84 1191.15 366.587 1192.45 368.08C1193.79 369.573 1194.45 372.24 1194.45 376.08ZM1179.45 376.04C1179.45 378.973 1179.84 380.92 1180.61 381.88C1181.39 382.813 1182.96 383.28 1185.33 383.28C1187.63 383.28 1189.17 382.787 1189.97 381.8C1190.77 380.787 1191.17 378.867 1191.17 376.04C1191.17 373.107 1190.79 371.173 1190.01 370.24C1189.27 369.28 1187.71 368.8 1185.33 368.8C1183.01 368.8 1181.45 369.293 1180.65 370.28C1179.85 371.267 1179.45 373.187 1179.45 376.04ZM1206.85 392.48C1205.52 392.48 1204.27 392.387 1203.09 392.2C1201.95 392.04 1201 391.813 1200.25 391.52V388.6C1200.87 388.84 1201.76 389.04 1202.93 389.2C1204.13 389.36 1205.32 389.44 1206.49 389.44C1208.49 389.44 1209.88 389.04 1210.65 388.24C1211.43 387.467 1211.81 386.08 1211.81 384.08V382.84C1210.83 383.427 1209.77 383.88 1208.65 384.2C1207.53 384.493 1206.4 384.64 1205.25 384.64C1202.61 384.64 1200.72 383.907 1199.57 382.44C1198.45 380.973 1197.89 378.573 1197.89 375.24C1197.89 371.853 1198.61 369.44 1200.05 368C1201.52 366.56 1204 365.84 1207.49 365.84C1208.75 365.84 1210.09 365.92 1211.53 366.08C1212.97 366.213 1214.16 366.387 1215.09 366.6V383.16C1215.09 386.627 1214.48 389.04 1213.25 390.4C1212.03 391.787 1209.89 392.48 1206.85 392.48ZM1207.49 368.8C1204.93 368.8 1203.24 369.24 1202.41 370.12C1201.59 371 1201.17 372.707 1201.17 375.24C1201.17 377.64 1201.52 379.307 1202.21 380.24C1202.93 381.147 1204.31 381.6 1206.33 381.6C1207.21 381.6 1208.12 381.48 1209.05 381.24C1210.01 380.973 1210.93 380.613 1211.81 380.16V369.24C1211.17 369.107 1210.48 369 1209.73 368.92C1209.01 368.84 1208.27 368.8 1207.49 368.8ZM1235.21 392.48C1233.88 392.48 1232.62 392.387 1231.45 392.2C1230.3 392.04 1229.36 391.813 1228.61 391.52V388.6C1229.22 388.84 1230.12 389.04 1231.29 389.2C1232.49 389.36 1233.68 389.44 1234.85 389.44C1236.85 389.44 1238.24 389.04 1239.01 388.24C1239.78 387.467 1240.17 386.08 1240.17 384.08V382.84C1239.18 383.427 1238.13 383.88 1237.01 384.2C1235.89 384.493 1234.76 384.64 1233.61 384.64C1230.97 384.64 1229.08 383.907 1227.93 382.44C1226.81 380.973 1226.25 378.573 1226.25 375.24C1226.25 371.853 1226.97 369.44 1228.41 368C1229.88 366.56 1232.36 365.84 1235.85 365.84C1237.1 365.84 1238.45 365.92 1239.89 366.08C1241.33 366.213 1242.52 366.387 1243.45 366.6V383.16C1243.45 386.627 1242.84 389.04 1241.61 390.4C1240.38 391.787 1238.25 392.48 1235.21 392.48ZM1235.85 368.8C1233.29 368.8 1231.6 369.24 1230.77 370.12C1229.94 371 1229.53 372.707 1229.53 375.24C1229.53 377.64 1229.88 379.307 1230.57 380.24C1231.29 381.147 1232.66 381.6 1234.69 381.6C1235.57 381.6 1236.48 381.48 1237.41 381.24C1238.37 380.973 1239.29 380.613 1240.17 380.16V369.24C1239.53 369.107 1238.84 369 1238.09 368.92C1237.37 368.84 1236.62 368.8 1235.85 368.8ZM1253.17 386.32C1251.15 386.32 1249.65 385.84 1248.69 384.88C1247.76 383.893 1247.29 382.347 1247.29 380.24C1247.29 378.107 1247.87 376.6 1249.01 375.72C1250.16 374.813 1252.11 374.36 1254.85 374.36C1255.76 374.36 1256.65 374.4 1257.53 374.48C1258.41 374.56 1259.24 374.68 1260.01 374.84V372.92C1260.01 371.453 1259.64 370.4 1258.89 369.76C1258.15 369.12 1256.95 368.8 1255.29 368.8C1254.07 368.8 1252.99 368.853 1252.05 368.96C1251.12 369.04 1250.19 369.187 1249.25 369.4V366.56C1250.32 366.293 1251.4 366.107 1252.49 366C1253.61 365.893 1254.88 365.84 1256.29 365.84C1258.67 365.84 1260.43 366.4 1261.57 367.52C1262.72 368.613 1263.29 370.32 1263.29 372.64V386H1260.29L1260.13 384.16H1260.05C1259.25 384.8 1258.21 385.32 1256.93 385.72C1255.68 386.12 1254.43 386.32 1253.17 386.32ZM1255.21 377.04C1253.4 377.04 1252.13 377.267 1251.41 377.72C1250.72 378.147 1250.37 378.92 1250.37 380.04C1250.37 381.213 1250.67 382.067 1251.25 382.6C1251.84 383.107 1252.8 383.36 1254.13 383.36C1255.17 383.36 1256.24 383.2 1257.33 382.88C1258.43 382.56 1259.32 382.16 1260.01 381.68V377.44C1259.13 377.307 1258.31 377.213 1257.53 377.16C1256.79 377.08 1256.01 377.04 1255.21 377.04ZM1271.7 386H1268.42V366.24H1271.42L1271.58 367.76H1271.7C1272.87 367.093 1273.94 366.613 1274.9 366.32C1275.86 366 1276.82 365.84 1277.78 365.84C1278.9 365.84 1279.86 366.013 1280.66 366.36C1281.46 366.707 1282.09 367.227 1282.54 367.92H1282.66C1283.73 367.253 1284.85 366.747 1286.02 366.4C1287.22 366.027 1288.42 365.84 1289.62 365.84C1291.51 365.84 1292.94 366.347 1293.9 367.36C1294.89 368.347 1295.38 369.813 1295.38 371.76V386H1292.1V372.16C1292.1 371.013 1291.79 370.173 1291.18 369.64C1290.57 369.08 1289.59 368.8 1288.26 368.8C1287.51 368.8 1286.73 368.92 1285.9 369.16C1285.07 369.373 1284.25 369.693 1283.42 370.12C1283.47 370.387 1283.5 370.653 1283.5 370.92C1283.53 371.187 1283.54 371.467 1283.54 371.76V386H1280.26V372.16C1280.26 371.013 1279.95 370.173 1279.34 369.64C1278.73 369.08 1277.75 368.8 1276.42 368.8C1275.75 368.8 1275.05 368.92 1274.3 369.16C1273.55 369.373 1272.69 369.747 1271.7 370.28V386ZM1315.33 382.16V384.92C1314.64 385.293 1313.61 385.627 1312.25 385.92C1310.92 386.187 1309.56 386.32 1308.17 386.32C1305.08 386.32 1302.86 385.52 1301.53 383.92C1300.2 382.32 1299.53 379.68 1299.53 376C1299.53 372.453 1300.22 369.88 1301.61 368.28C1303 366.653 1305.21 365.84 1308.25 365.84C1311.08 365.84 1313.1 366.48 1314.33 367.76C1315.56 369.013 1316.17 371.12 1316.17 374.08C1316.17 374.613 1316.16 375.107 1316.13 375.56C1316.1 376.013 1316.05 376.56 1315.97 377.2H1302.85C1302.88 379.387 1303.32 380.947 1304.17 381.88C1305.05 382.813 1306.56 383.28 1308.69 383.28C1309.84 383.28 1311.04 383.173 1312.29 382.96C1313.54 382.747 1314.56 382.48 1315.33 382.16ZM1313.17 373.64C1313.14 371.88 1312.76 370.64 1312.01 369.92C1311.26 369.173 1310.01 368.8 1308.25 368.8C1306.28 368.8 1304.88 369.227 1304.05 370.08C1303.25 370.907 1302.85 372.373 1302.85 374.48H1313.13C1313.13 374.427 1313.13 374.307 1313.13 374.12C1313.16 373.907 1313.17 373.747 1313.17 373.64ZM1327.21 368.8C1325.51 368.8 1324.32 369 1323.65 369.4C1323.01 369.8 1322.69 370.613 1322.69 371.84C1322.69 372.48 1322.84 372.973 1323.13 373.32C1323.45 373.64 1323.95 373.853 1324.61 373.96L1329.69 374.72C1331.29 374.96 1332.41 375.467 1333.05 376.24C1333.69 376.987 1334.01 378.173 1334.01 379.8C1334.01 382.093 1333.47 383.76 1332.37 384.8C1331.28 385.813 1329.47 386.32 1326.93 386.32C1325.41 386.32 1324 386.24 1322.69 386.08C1321.39 385.92 1320.31 385.707 1319.45 385.44V382.36C1320.31 382.627 1321.35 382.853 1322.57 383.04C1323.83 383.2 1325.11 383.28 1326.41 383.28C1328.07 383.28 1329.2 383.04 1329.81 382.56C1330.43 382.08 1330.73 381.227 1330.73 380C1330.73 379.227 1330.56 378.667 1330.21 378.32C1329.87 377.947 1329.24 377.693 1328.33 377.56L1323.25 376.8C1321.97 376.613 1321.01 376.12 1320.37 375.32C1319.76 374.52 1319.44 373.36 1319.41 371.84C1319.41 369.76 1320.03 368.24 1321.25 367.28C1322.51 366.32 1324.43 365.84 1327.01 365.84C1328.08 365.84 1329.04 365.867 1329.89 365.92C1330.77 365.973 1331.69 366.08 1332.65 366.24V369.16C1331.96 369.053 1331.15 368.973 1330.21 368.92C1329.28 368.84 1328.28 368.8 1327.21 368.8ZM1340.47 386H1337.19V382.68H1340.47V386Z" fill="white"/>
<path d="M254.857 183H226.107V158H311.107V183H282.357V333H254.857V183ZM324.421 158H351.921V229.25H381.421V158H408.921V333H381.421V254.25H351.921V333H324.421V158ZM469.402 335.5C456.068 335.5 445.902 331.75 438.902 324.25C431.902 316.583 428.402 305.667 428.402 291.5V158H455.902V293.5C455.902 299.5 457.068 303.833 459.402 306.5C461.902 309.167 465.402 310.5 469.902 310.5C474.402 310.5 477.818 309.167 480.152 306.5C482.652 303.833 483.902 299.5 483.902 293.5V158H510.402V291.5C510.402 305.667 506.902 316.583 499.902 324.25C492.902 331.75 482.735 335.5 469.402 335.5ZM529.988 158H564.488L591.238 262.75H591.738V158H616.238V333H587.988L554.988 205.25H554.488V333H529.988V158ZM636.677 158H678.677C692.344 158 702.594 161.667 709.427 169C716.26 176.333 719.677 187.083 719.677 201.25V289.75C719.677 303.917 716.26 314.667 709.427 322C702.594 329.333 692.344 333 678.677 333H636.677V158ZM678.177 308C682.677 308 686.094 306.667 688.427 304C690.927 301.333 692.177 297 692.177 291V200C692.177 194 690.927 189.667 688.427 187C686.094 184.333 682.677 183 678.177 183H664.177V308H678.177ZM738.24 158H813.24V183H765.74V229.25H803.49V254.25H765.74V308H813.24V333H738.24V158ZM829.06 158H869.81C883.977 158 894.31 161.333 900.81 168C907.31 174.5 910.56 184.583 910.56 198.25V209C910.56 227.167 904.56 238.667 892.56 243.5V244C899.227 246 903.893 250.083 906.56 256.25C909.393 262.417 910.81 270.667 910.81 281V311.75C910.81 316.75 910.977 320.833 911.31 324C911.643 327 912.477 330 913.81 333H885.81C884.81 330.167 884.143 327.5 883.81 325C883.477 322.5 883.31 318 883.31 311.5V279.5C883.31 271.5 881.977 265.917 879.31 262.75C876.81 259.583 872.393 258 866.06 258H856.56V333H829.06V158ZM866.56 233C872.06 233 876.143 231.583 878.81 228.75C881.643 225.917 883.06 221.167 883.06 214.5V201C883.06 194.667 881.893 190.083 879.56 187.25C877.393 184.417 873.893 183 869.06 183H856.56V233H866.56ZM965.64 335.5C952.307 335.5 942.223 331.75 935.39 324.25C928.557 316.583 925.14 305.667 925.14 291.5V281.5H951.14V293.5C951.14 304.833 955.89 310.5 965.39 310.5C970.057 310.5 973.557 309.167 975.89 306.5C978.39 303.667 979.64 299.167 979.64 293C979.64 285.667 977.973 279.25 974.64 273.75C971.307 268.083 965.14 261.333 956.14 253.5C944.807 243.5 936.89 234.5 932.39 226.5C927.89 218.333 925.64 209.167 925.64 199C925.64 185.167 929.14 174.5 936.14 167C943.14 159.333 953.307 155.5 966.64 155.5C979.807 155.5 989.723 159.333 996.39 167C1003.22 174.5 1006.64 185.333 1006.64 199.5V206.75H980.64V197.75C980.64 191.75 979.473 187.417 977.14 184.75C974.807 181.917 971.39 180.5 966.89 180.5C957.723 180.5 953.14 186.083 953.14 197.25C953.14 203.583 954.807 209.5 958.14 215C961.64 220.5 967.89 227.167 976.89 235C988.39 245 996.307 254.083 1000.64 262.25C1004.97 270.417 1007.14 280 1007.14 291C1007.14 305.333 1003.56 316.333 996.39 324C989.39 331.667 979.14 335.5 965.64 335.5ZM1044.41 183H1015.66V158H1100.66V183H1071.91V333H1044.41V183ZM1152.75 335.5C1139.25 335.5 1128.91 331.667 1121.75 324C1114.58 316.333 1111 305.5 1111 291.5V199.5C1111 185.5 1114.58 174.667 1121.75 167C1128.91 159.333 1139.25 155.5 1152.75 155.5C1166.25 155.5 1176.58 159.333 1183.75 167C1190.91 174.667 1194.5 185.5 1194.5 199.5V291.5C1194.5 305.5 1190.91 316.333 1183.75 324C1176.58 331.667 1166.25 335.5 1152.75 335.5ZM1152.75 310.5C1162.25 310.5 1167 304.75 1167 293.25V197.75C1167 186.25 1162.25 180.5 1152.75 180.5C1143.25 180.5 1138.5 186.25 1138.5 197.75V293.25C1138.5 304.75 1143.25 310.5 1152.75 310.5ZM1213.09 158H1253.84C1268.01 158 1278.34 161.333 1284.84 168C1291.34 174.5 1294.59 184.583 1294.59 198.25V209C1294.59 227.167 1288.59 238.667 1276.59 243.5V244C1283.26 246 1287.93 250.083 1290.59 256.25C1293.43 262.417 1294.84 270.667 1294.84 281V311.75C1294.84 316.75 1295.01 320.833 1295.34 324C1295.68 327 1296.51 330 1297.84 333H1269.84C1268.84 330.167 1268.18 327.5 1267.84 325C1267.51 322.5 1267.34 318 1267.34 311.5V279.5C1267.34 271.5 1266.01 265.917 1263.34 262.75C1260.84 259.583 1256.43 258 1250.09 258H1240.59V333H1213.09V158ZM1250.59 233C1256.09 233 1260.18 231.583 1262.84 228.75C1265.68 225.917 1267.09 221.167 1267.09 214.5V201C1267.09 194.667 1265.93 190.083 1263.59 187.25C1261.43 184.417 1257.93 183 1253.09 183H1240.59V233H1250.59ZM1313.92 158H1353.17L1370.67 283.25H1371.17L1388.67 158H1427.92V333H1401.92V200.5H1401.42L1381.42 333H1358.42L1338.42 200.5H1337.92V333H1313.92V158Z" fill="#FF2E00"/>
<path d="M62.25 159.84H103.75C117.917 159.84 128.25 163.174 134.75 169.84C141.25 176.34 144.5 186.424 144.5 200.09V207.09C144.5 216.09 143 223.424 140 229.09C137.167 234.757 132.75 238.84 126.75 241.34V241.84C140.417 246.507 147.25 258.674 147.25 278.34V293.34C147.25 306.84 143.667 317.174 136.5 324.34C129.5 331.34 119.167 334.84 105.5 334.84H62.25V159.84ZM100.5 231.09C106 231.09 110.083 229.674 112.75 226.84C115.583 224.007 117 219.257 117 212.59V202.84C117 196.507 115.833 191.924 113.5 189.09C111.333 186.257 107.833 184.84 103 184.84H89.75V231.09H100.5ZM105.5 309.84C110.333 309.84 113.917 308.59 116.25 306.09C118.583 303.424 119.75 298.924 119.75 292.59V277.34C119.75 269.34 118.333 263.84 115.5 260.84C112.833 257.674 108.333 256.09 102 256.09H89.75V309.84H105.5ZM163.324 159.84H190.824V309.84H236.074V334.84H163.324V159.84Z" fill="#0085FF"/>
</svg>
