<svg width="1500" height="1500" viewBox="0 0 1500 1500" fill="none" xmlns="http://www.w3.org/2000/svg">
<rect width="1500" height="1500" fill="#151321"/>
<path d="M258.767 688H230.017V663H315.017V688H286.267V838H258.767V688ZM328.332 663H355.832V734.25H385.332V663H412.832V838H385.332V759.25H355.832V838H328.332V663ZM473.312 840.5C459.979 840.5 449.812 836.75 442.812 829.25C435.812 821.583 432.312 810.667 432.312 796.5V663H459.812V798.5C459.812 804.5 460.979 808.833 463.312 811.5C465.812 814.167 469.312 815.5 473.812 815.5C478.312 815.5 481.729 814.167 484.062 811.5C486.562 808.833 487.812 804.5 487.812 798.5V663H514.312V796.5C514.312 810.667 510.812 821.583 503.812 829.25C496.812 836.75 486.645 840.5 473.312 840.5ZM533.898 663H568.398L595.148 767.75H595.648V663H620.148V838H591.898L558.898 710.25H558.398V838H533.898V663ZM640.587 663H682.587C696.254 663 706.504 666.667 713.337 674C720.171 681.333 723.587 692.083 723.587 706.25V794.75C723.587 808.917 720.171 819.667 713.337 827C706.504 834.333 696.254 838 682.587 838H640.587V663ZM682.087 813C686.587 813 690.004 811.667 692.337 809C694.837 806.333 696.087 802 696.087 796V705C696.087 699 694.837 694.667 692.337 692C690.004 689.333 686.587 688 682.087 688H668.087V813H682.087ZM742.15 663H817.15V688H769.65V734.25H807.4V759.25H769.65V813H817.15V838H742.15V663ZM832.97 663H873.72C887.887 663 898.22 666.333 904.72 673C911.22 679.5 914.47 689.583 914.47 703.25V714C914.47 732.167 908.47 743.667 896.47 748.5V749C903.137 751 907.804 755.083 910.47 761.25C913.304 767.417 914.72 775.667 914.72 786V816.75C914.72 821.75 914.887 825.833 915.22 829C915.554 832 916.387 835 917.72 838H889.72C888.72 835.167 888.054 832.5 887.72 830C887.387 827.5 887.22 823 887.22 816.5V784.5C887.22 776.5 885.887 770.917 883.22 767.75C880.72 764.583 876.304 763 869.97 763H860.47V838H832.97V663ZM870.47 738C875.97 738 880.054 736.583 882.72 733.75C885.554 730.917 886.97 726.167 886.97 719.5V706C886.97 699.667 885.804 695.083 883.47 692.25C881.304 689.417 877.804 688 872.97 688H860.47V738H870.47ZM969.55 840.5C956.217 840.5 946.134 836.75 939.3 829.25C932.467 821.583 929.05 810.667 929.05 796.5V786.5H955.05V798.5C955.05 809.833 959.8 815.5 969.3 815.5C973.967 815.5 977.467 814.167 979.8 811.5C982.3 808.667 983.55 804.167 983.55 798C983.55 790.667 981.884 784.25 978.55 778.75C975.217 773.083 969.05 766.333 960.05 758.5C948.717 748.5 940.8 739.5 936.3 731.5C931.8 723.333 929.55 714.167 929.55 704C929.55 690.167 933.05 679.5 940.05 672C947.05 664.333 957.217 660.5 970.55 660.5C983.717 660.5 993.634 664.333 1000.3 672C1007.13 679.5 1010.55 690.333 1010.55 704.5V711.75H984.55V702.75C984.55 696.75 983.384 692.417 981.05 689.75C978.717 686.917 975.3 685.5 970.8 685.5C961.634 685.5 957.05 691.083 957.05 702.25C957.05 708.583 958.717 714.5 962.05 720C965.55 725.5 971.8 732.167 980.8 740C992.3 750 1000.22 759.083 1004.55 767.25C1008.88 775.417 1011.05 785 1011.05 796C1011.05 810.333 1007.47 821.333 1000.3 829C993.3 836.667 983.05 840.5 969.55 840.5ZM1048.32 688H1019.57V663H1104.57V688H1075.82V838H1048.32V688ZM1156.66 840.5C1143.16 840.5 1132.82 836.667 1125.66 829C1118.49 821.333 1114.91 810.5 1114.91 796.5V704.5C1114.91 690.5 1118.49 679.667 1125.66 672C1132.82 664.333 1143.16 660.5 1156.66 660.5C1170.16 660.5 1180.49 664.333 1187.66 672C1194.82 679.667 1198.41 690.5 1198.41 704.5V796.5C1198.41 810.5 1194.82 821.333 1187.66 829C1180.49 836.667 1170.16 840.5 1156.66 840.5ZM1156.66 815.5C1166.16 815.5 1170.91 809.75 1170.91 798.25V702.75C1170.91 691.25 1166.16 685.5 1156.66 685.5C1147.16 685.5 1142.41 691.25 1142.41 702.75V798.25C1142.41 809.75 1147.16 815.5 1156.66 815.5ZM1217 663H1257.75C1271.92 663 1282.25 666.333 1288.75 673C1295.25 679.5 1298.5 689.583 1298.5 703.25V714C1298.5 732.167 1292.5 743.667 1280.5 748.5V749C1287.17 751 1291.84 755.083 1294.5 761.25C1297.34 767.417 1298.75 775.667 1298.75 786V816.75C1298.75 821.75 1298.92 825.833 1299.25 829C1299.59 832 1300.42 835 1301.75 838H1273.75C1272.75 835.167 1272.09 832.5 1271.75 830C1271.42 827.5 1271.25 823 1271.25 816.5V784.5C1271.25 776.5 1269.92 770.917 1267.25 767.75C1264.75 764.583 1260.34 763 1254 763H1244.5V838H1217V663ZM1254.5 738C1260 738 1264.09 736.583 1266.75 733.75C1269.59 730.917 1271 726.167 1271 719.5V706C1271 699.667 1269.84 695.083 1267.5 692.25C1265.34 689.417 1261.84 688 1257 688H1244.5V738H1254.5ZM1317.83 663H1357.08L1374.58 788.25H1375.08L1392.58 663H1431.83V838H1405.83V705.5H1405.33L1385.33 838H1362.33L1342.33 705.5H1341.83V838H1317.83V663Z" fill="#FF2E00"/>
<path d="M59.25 663H100.75C114.917 663 125.25 666.333 131.75 673C138.25 679.5 141.5 689.583 141.5 703.25V710.25C141.5 719.25 140 726.583 137 732.25C134.167 737.917 129.75 742 123.75 744.5V745C137.417 749.667 144.25 761.833 144.25 781.5V796.5C144.25 810 140.667 820.333 133.5 827.5C126.5 834.5 116.167 838 102.5 838H59.25V663ZM97.5 734.25C103 734.25 107.083 732.833 109.75 730C112.583 727.167 114 722.417 114 715.75V706C114 699.667 112.833 695.083 110.5 692.25C108.333 689.417 104.833 688 100 688H86.75V734.25H97.5ZM102.5 813C107.333 813 110.917 811.75 113.25 809.25C115.583 806.583 116.75 802.083 116.75 795.75V780.5C116.75 772.5 115.333 767 112.5 764C109.833 760.833 105.333 759.25 99 759.25H86.75V813H102.5ZM160.324 663H187.824V813H233.074V838H160.324V663Z" fill="#0085FF"/>
</svg>
